<?xml version="1.0" standalone="no"?>
<!DOCTYPE svg PUBLIC "-//W3C//DTD SVG 20010904//EN"
 "http://www.w3.org/TR/2001/REC-SVG-20010904/DTD/svg10.dtd">
<svg version="1.0" xmlns="http://www.w3.org/2000/svg"
 width="512.000000pt" height="512.000000pt" viewBox="0 0 512.000000 512.000000"
 preserveAspectRatio="xMidYMid meet">
<metadata>
Created by potrace 1.11, written by Peter Selinger 2001-2013
</metadata>
<g transform="translate(0.000000,512.000000) scale(0.100000,-0.100000)"
fill="#000000" stroke="none">
<path d="M1150 4308 c-88 -11 -210 -53 -259 -88 -81 -59 -142 -157 -189 -300
-60 -184 -64 -269 -18 -475 13 -62 74 -223 116 -310 27 -55 89 -163 136 -240
81 -130 87 -144 86 -190 -2 -79 -9 -134 -31 -225 -24 -104 -30 -136 -37 -220
-9 -96 -21 -138 -65 -212 -38 -65 -129 -163 -216 -235 -23 -19 -45 -44 -48
-56 -4 -12 -13 -35 -20 -52 -37 -84 -135 -334 -135 -344 0 -7 -3 -10 -8 -8 -4
3 -7 -5 -8 -16 -2 -51 -16 -136 -30 -185 l-16 -53 33 -42 c18 -24 43 -51 56
-60 21 -17 25 -17 57 -2 46 22 65 65 59 137 -5 59 22 149 84 285 29 64 129
146 195 158 36 7 210 53 298 79 121 36 126 28 90 -168 -11 -60 -20 -124 -20
-142 0 -93 112 -260 316 -472 l61 -63 74 0 c163 -2 182 3 194 52 5 19 -2 33
-27 62 -29 33 -40 39 -88 44 -54 6 -57 8 -142 97 -90 94 -103 119 -93 177 7
42 76 150 90 142 5 -4 7 -3 3 2 -9 10 20 51 88 123 35 36 71 90 100 150 45 90
46 92 82 93 21 1 93 2 162 4 171 4 225 11 292 34 l57 20 88 -24 c48 -13 117
-33 153 -43 l65 -19 -1 -64 c-1 -65 -13 -189 -20 -200 -1 -3 -6 -28 -9 -56 -8
-70 -10 -80 -36 -153 -18 -52 -23 -91 -25 -197 -2 -119 -1 -134 17 -158 20
-24 25 -25 124 -25 110 0 123 5 127 53 3 39 -20 73 -63 93 -38 17 -39 18 -34
58 7 50 34 116 48 116 6 0 8 3 4 6 -3 3 19 54 50 113 148 283 177 327 233 356
16 8 63 15 115 16 50 1 105 8 126 17 l38 15 70 -52 c74 -55 121 -104 121 -126
0 -20 101 -108 365 -317 131 -104 158 -126 224 -185 20 -18 62 -47 95 -64 32
-17 75 -47 94 -65 l36 -34 109 0 c107 0 109 1 138 29 33 34 36 57 11 87 -28
33 -56 44 -117 44 -62 0 -59 -2 -155 95 -184 188 -288 328 -367 495 -44 94
-43 84 -47 515 -1 148 -1 151 29 210 35 69 121 160 183 192 41 21 62 25 192
38 36 3 60 11 68 23 28 37 92 152 92 164 0 13 -36 78 -49 88 -23 18 -90 110
-98 136 -16 45 -56 81 -141 126 l-76 39 3 52 c8 137 8 142 -16 140 -14 -2 -23
4 -25 15 -3 12 -34 -13 -118 -95 -102 -99 -125 -116 -200 -150 -92 -41 -95
-43 -178 -122 -59 -55 -128 -103 -204 -142 -33 -17 -60 -22 -118 -22 -41 1
-88 4 -105 7 -101 20 -175 31 -280 41 -33 3 -71 8 -85 10 -14 2 -72 11 -130
20 -109 16 -137 21 -192 31 -18 3 -46 7 -63 9 -16 2 -70 10 -120 19 -49 8
-117 18 -150 21 -33 4 -71 9 -85 12 -43 9 -382 11 -445 3 -33 -5 -96 -11 -139
-15 -44 -4 -101 -10 -127 -14 -91 -15 -125 -7 -198 42 -155 107 -211 201 -278
467 -32 130 -36 286 -9 365 27 78 56 138 79 163 26 28 84 59 123 67 16 3 42 7
57 10 35 7 115 -30 170 -77 l38 -32 30 30 c26 26 30 38 31 83 0 40 -6 59 -25
84 -30 39 -85 97 -92 97 -3 0 -20 7 -38 16 -46 25 -93 31 -167 22z"/>
</g>
</svg>
